<svg width="27" height="15" viewBox="0 0 27 15" fill="none" xmlns="http://www.w3.org/2000/svg">
<path d="M0.626746 13.414L0.626762 13.414L8.97948 1.61541C9.10669 1.43572 9.31134 1.3291 9.52918 1.32741L9.52921 1.32741C9.74512 1.32573 9.95358 1.42964 10.0831 1.60689L10.0832 1.60692L15.9586 9.64427L16.2986 10.1094L16.7112 9.70723L20.1232 6.3812L20.1233 6.3811C20.2636 6.24425 20.455 6.17497 20.649 6.18996L20.6491 6.18997C20.8431 6.20492 21.0221 6.30285 21.1402 6.45988L21.1403 6.45993L26.3294 13.3571L26.3361 13.366L26.3432 13.3746C26.4412 13.4935 26.5 13.6455 26.5 13.8131C26.5 14.1945 26.1927 14.5 25.8183 14.5H25.8183H25.8183H25.8183H25.8182H25.8182H25.8182H25.8182H25.8182H25.8182H25.8181H25.8181H25.8181H25.8181H25.8181H25.8181H25.818H25.818H25.818H25.818H25.818H25.818H25.8179H25.8179H25.8179H25.8179H25.8179H25.8179H25.8178H25.8178H25.8178H25.8178H25.8178H25.8178H25.8177H25.8177H25.8177H25.8177H25.8177H25.8177H25.8176H25.8176H25.8176H25.8176H25.8176H25.8176H25.8175H25.8175H25.8175H25.8175H25.8175H25.8175H25.8174H25.8174H25.8174H25.8174H25.8174H25.8174H25.8174H25.8173H25.8173H25.8173H25.8173H25.8173H25.8173H25.8172H25.8172H25.8172H25.8172H25.8172H25.8172H25.8171H25.8171H25.8171H25.8171H25.8171H25.8171H25.8171H25.817H25.817H25.817H25.817H25.817H25.817H25.8169H25.8169H25.8169H1.18164C0.927758 14.5 0.693794 14.3576 0.576307 14.1288C0.458655 13.8998 0.478265 13.6237 0.626746 13.414ZM3.06389 12.3372L2.50541 13.1261H3.47198H23.4427H24.4446L23.8423 12.3255L20.8601 8.3616L20.5184 7.90748L20.1115 8.30417L16.6862 11.6433C16.6862 11.6434 16.6862 11.6434 16.6862 11.6434C16.5446 11.7814 16.351 11.8506 16.1557 11.8342L16.1556 11.8342C15.96 11.8177 15.7804 11.717 15.6635 11.557L15.6634 11.557L9.95321 3.74585L9.54305 3.18477L9.14148 3.75203L3.06389 12.3372Z" fill="white"/>
</svg>
